<svg id="visual" viewBox="0 0 960 540" width="960" height="540" xmlns="http://www.w3.org/2000/svg" xmlns:xlink="http://www.w3.org/1999/xlink" version="1.1"><g stroke-width="1" stroke-linejoin="bevel"><path d="M427.7 241L418.7 157L340 243Z" fill="#575757" stroke="#575757"></path><path d="M418.7 157L292 184L340 243Z" fill="#898989" stroke="#898989"></path><path d="M242.3 251L329 320L340 243Z" fill="#898989" stroke="#898989"></path><path d="M340 243L329 320L427.7 241Z" fill="#656565" stroke="#656565"></path><path d="M531.3 117L411.7 75L418.7 157Z" fill="#737373" stroke="#737373"></path><path d="M418.7 157L411.7 75L292 184Z" fill="#737373" stroke="#737373"></path><path d="M560.3 252L520.3 167L427.7 241Z" fill="#6c6c6c" stroke="#6c6c6c"></path><path d="M427.7 241L520.3 167L418.7 157Z" fill="#7b7b7b" stroke="#7b7b7b"></path><path d="M292 184L242.3 251L340 243Z" fill="#737373" stroke="#737373"></path><path d="M329 320L413.7 350L427.7 241Z" fill="#656565" stroke="#656565"></path><path d="M520.3 167L531.3 117L418.7 157Z" fill="#919191" stroke="#919191"></path><path d="M411.7 75L286 53L292 184Z" fill="#5e5e5e" stroke="#5e5e5e"></path><path d="M292 184L185.3 198L242.3 251Z" fill="#898989" stroke="#898989"></path><path d="M493.3 376L560.3 252L427.7 241Z" fill="#5e5e5e" stroke="#5e5e5e"></path><path d="M520.3 167L628 164L531.3 117Z" fill="#898989" stroke="#898989"></path><path d="M286 53L224.3 103L292 184Z" fill="#5e5e5e" stroke="#5e5e5e"></path><path d="M224.3 103L185.3 198L292 184Z" fill="#5e5e5e" stroke="#5e5e5e"></path><path d="M413.7 350L493.3 376L427.7 241Z" fill="#494949" stroke="#494949"></path><path d="M502.3 0L420.7 0L411.7 75Z" fill="#505050" stroke="#505050"></path><path d="M411.7 75L309 0L286 53Z" fill="#737373" stroke="#737373"></path><path d="M420.7 0L309 0L411.7 75Z" fill="#7b7b7b" stroke="#7b7b7b"></path><path d="M286 53L241.3 0L224.3 103Z" fill="#5e5e5e" stroke="#5e5e5e"></path><path d="M531.3 117L502.3 0L411.7 75Z" fill="#5e5e5e" stroke="#5e5e5e"></path><path d="M209.3 418L332 437L329 320Z" fill="#919191" stroke="#919191"></path><path d="M329 320L332 437L413.7 350Z" fill="#656565" stroke="#656565"></path><path d="M413.7 350L404.7 459L493.3 376Z" fill="#5e5e5e" stroke="#5e5e5e"></path><path d="M182.3 391L329 320L242.3 251Z" fill="#919191" stroke="#919191"></path><path d="M309 0L241.3 0L286 53Z" fill="#5e5e5e" stroke="#5e5e5e"></path><path d="M224.3 103L134.7 152L185.3 198Z" fill="#898989" stroke="#898989"></path><path d="M657 236L628 164L560.3 252Z" fill="#494949" stroke="#494949"></path><path d="M560.3 252L628 164L520.3 167Z" fill="#6c6c6c" stroke="#6c6c6c"></path><path d="M531.3 117L620 97L502.3 0Z" fill="#656565" stroke="#656565"></path><path d="M124.7 53L134.7 152L224.3 103Z" fill="#494949" stroke="#494949"></path><path d="M185.3 198L136.7 280L242.3 251Z" fill="#919191" stroke="#919191"></path><path d="M332 437L404.7 459L413.7 350Z" fill="#656565" stroke="#656565"></path><path d="M134.7 152L136.7 280L185.3 198Z" fill="#575757" stroke="#575757"></path><path d="M628 164L620 97L531.3 117Z" fill="#494949" stroke="#494949"></path><path d="M136.7 280L182.3 391L242.3 251Z" fill="#5e5e5e" stroke="#5e5e5e"></path><path d="M678 382L657 236L560.3 252Z" fill="#898989" stroke="#898989"></path><path d="M751.7 89L679 0L620 97Z" fill="#656565" stroke="#656565"></path><path d="M567.3 419L560.3 252L493.3 376Z" fill="#898989" stroke="#898989"></path><path d="M182.3 391L209.3 418L329 320Z" fill="#7b7b7b" stroke="#7b7b7b"></path><path d="M332 437L347 540L404.7 459Z" fill="#737373" stroke="#737373"></path><path d="M404.7 459L567.3 419L493.3 376Z" fill="#898989" stroke="#898989"></path><path d="M0 291L111.7 322L136.7 280Z" fill="#898989" stroke="#898989"></path><path d="M136.7 280L111.7 322L182.3 391Z" fill="#919191" stroke="#919191"></path><path d="M182.3 391L84.7 427L209.3 418Z" fill="#656565" stroke="#656565"></path><path d="M241.3 0L124.7 53L224.3 103Z" fill="#919191" stroke="#919191"></path><path d="M134.7 152L0 174L136.7 280Z" fill="#737373" stroke="#737373"></path><path d="M241.3 0L126.7 0L124.7 53Z" fill="#898989" stroke="#898989"></path><path d="M0 325L84.7 427L111.7 322Z" fill="#575757" stroke="#575757"></path><path d="M567.3 540L633 422L567.3 419Z" fill="#898989" stroke="#898989"></path><path d="M567.3 419L678 382L560.3 252Z" fill="#737373" stroke="#737373"></path><path d="M205.3 540L347 540L332 437Z" fill="#575757" stroke="#575757"></path><path d="M404.7 459L567.3 540L567.3 419Z" fill="#737373" stroke="#737373"></path><path d="M347 540L419.7 540L404.7 459Z" fill="#5e5e5e" stroke="#5e5e5e"></path><path d="M633 422L678 382L567.3 419Z" fill="#737373" stroke="#737373"></path><path d="M741.7 150L620 97L628 164Z" fill="#656565" stroke="#656565"></path><path d="M620 97L679 0L502.3 0Z" fill="#737373" stroke="#737373"></path><path d="M741.7 150L628 164L657 236Z" fill="#494949" stroke="#494949"></path><path d="M740.7 267L741.7 150L657 236Z" fill="#505050" stroke="#505050"></path><path d="M678 382L740.7 267L657 236Z" fill="#898989" stroke="#898989"></path><path d="M0 174L134.7 152L0 65Z" fill="#737373" stroke="#737373"></path><path d="M111.7 322L84.7 427L182.3 391Z" fill="#494949" stroke="#494949"></path><path d="M209.3 418L205.3 540L332 437Z" fill="#575757" stroke="#575757"></path><path d="M109.7 540L205.3 540L209.3 418Z" fill="#737373" stroke="#737373"></path><path d="M633 422L751.7 476L678 382Z" fill="#828282" stroke="#828282"></path><path d="M419.7 540L567.3 540L404.7 459Z" fill="#494949" stroke="#494949"></path><path d="M0 65L134.7 152L124.7 53Z" fill="#828282" stroke="#828282"></path><path d="M741.7 150L751.7 89L620 97Z" fill="#575757" stroke="#575757"></path><path d="M813.3 153L751.7 89L741.7 150Z" fill="#505050" stroke="#505050"></path><path d="M0 174L0 291L136.7 280Z" fill="#505050" stroke="#505050"></path><path d="M0 291L0 325L111.7 322Z" fill="#737373" stroke="#737373"></path><path d="M0 0L0 65L124.7 53Z" fill="#656565" stroke="#656565"></path><path d="M567.3 540L633 540L633 422Z" fill="#828282" stroke="#828282"></path><path d="M678 382L773.7 376L740.7 267Z" fill="#656565" stroke="#656565"></path><path d="M751.7 476L773.7 376L678 382Z" fill="#898989" stroke="#898989"></path><path d="M740.7 267L813.3 153L741.7 150Z" fill="#494949" stroke="#494949"></path><path d="M881.3 284L813.3 153L740.7 267Z" fill="#6c6c6c" stroke="#6c6c6c"></path><path d="M751.7 89L778.7 0L679 0Z" fill="#494949" stroke="#494949"></path><path d="M126.7 0L0 0L124.7 53Z" fill="#7b7b7b" stroke="#7b7b7b"></path><path d="M84.7 427L109.7 540L209.3 418Z" fill="#919191" stroke="#919191"></path><path d="M0 540L109.7 540L84.7 427Z" fill="#505050" stroke="#505050"></path><path d="M0 325L0 411L84.7 427Z" fill="#828282" stroke="#828282"></path><path d="M826.3 121L778.7 0L751.7 89Z" fill="#656565" stroke="#656565"></path><path d="M960 209L826.3 121L813.3 153Z" fill="#5e5e5e" stroke="#5e5e5e"></path><path d="M813.3 153L826.3 121L751.7 89Z" fill="#575757" stroke="#575757"></path><path d="M633 540L751.7 476L633 422Z" fill="#5e5e5e" stroke="#5e5e5e"></path><path d="M830.3 465L853.3 356L773.7 376Z" fill="#898989" stroke="#898989"></path><path d="M773.7 376L853.3 356L740.7 267Z" fill="#737373" stroke="#737373"></path><path d="M853.3 356L881.3 284L740.7 267Z" fill="#575757" stroke="#575757"></path><path d="M0 411L0 540L84.7 427Z" fill="#7b7b7b" stroke="#7b7b7b"></path><path d="M751.7 476L830.3 465L773.7 376Z" fill="#919191" stroke="#919191"></path><path d="M633 540L767.7 540L751.7 476Z" fill="#505050" stroke="#505050"></path><path d="M767.7 540L830.3 465L751.7 476Z" fill="#828282" stroke="#828282"></path><path d="M960 238L960 209L881.3 284Z" fill="#737373" stroke="#737373"></path><path d="M826.3 121L869.3 0L778.7 0Z" fill="#898989" stroke="#898989"></path><path d="M960 60L869.3 0L826.3 121Z" fill="#898989" stroke="#898989"></path><path d="M767.7 540L830.3 540L830.3 465Z" fill="#505050" stroke="#505050"></path><path d="M960 238L881.3 284L960 384Z" fill="#575757" stroke="#575757"></path><path d="M881.3 284L853.3 356L960 384Z" fill="#494949" stroke="#494949"></path><path d="M881.3 284L960 209L813.3 153Z" fill="#575757" stroke="#575757"></path><path d="M960 384L853.3 356L830.3 465Z" fill="#919191" stroke="#919191"></path><path d="M960 209L960 60L826.3 121Z" fill="#6c6c6c" stroke="#6c6c6c"></path><path d="M960 483L960 384L830.3 465Z" fill="#737373" stroke="#737373"></path><path d="M960 60L960 0L869.3 0Z" fill="#494949" stroke="#494949"></path><path d="M830.3 540L960 483L830.3 465Z" fill="#7b7b7b" stroke="#7b7b7b"></path><path d="M830.3 540L960 540L960 483Z" fill="#919191" stroke="#919191"></path></g></svg>