<svg width="84" height="40" viewBox="0 0 84 40" fill="none" xmlns="http://www.w3.org/2000/svg">
<path d="M4.5621 8.72001C4.1615 8.3872 3.83723 7.97204 3.61134 7.50275L3.45048 7.16855C1.85265 3.84897 4.27163 -7.15256e-07 7.95574 -7.15256e-07L66.2362 -7.15256e-07C69.1749 -7.15256e-07 71.4799 2.52217 71.216 5.44898L70.4156 14.3273C70.1445 17.3338 67.2915 19.4163 64.3455 18.758L15.5658 7.85912C13.8741 7.48116 12.4924 9.22153 13.2442 10.7834C14.2107 12.7912 11.7634 14.7027 10.0494 13.2787L4.5621 8.72001Z" fill="#B3B3B3"/>
<path d="M79.4379 31.28C79.8385 31.6128 80.1628 32.028 80.3887 32.4973L80.5495 32.8315C82.1474 36.151 79.7284 40 76.0443 40L17.7638 40C14.8251 40 12.5201 37.4778 12.784 34.551L13.5844 25.6727C13.8555 22.6662 16.7085 20.5837 19.6545 21.242L68.4342 32.1409C70.1259 32.5188 71.5076 30.7785 70.7558 29.2166C69.7893 27.2088 72.2366 25.2973 73.9506 26.7213L79.4379 31.28Z" fill="#69665D"/>
<g filter="url(#filter0_d_19_258)">
<path d="M16.5153 14.3277C16.5845 13.0422 17.663 12.2098 18.9241 12.4686L65.2961 21.9843C66.5572 22.2431 67.5234 23.495 67.4542 24.7805C67.385 26.0661 66.3066 26.8984 65.0455 26.6396L18.6735 17.124C17.4124 16.8652 16.4461 15.6132 16.5153 14.3277Z" fill="#FF9143"/>
</g>
<defs>
<filter id="filter0_d_19_258" x="12.5117" y="12.4214" width="58.9463" height="22.2654" filterUnits="userSpaceOnUse" color-interpolation-filters="sRGB">
<feFlood flood-opacity="0" result="BackgroundImageFix"/>
<feColorMatrix in="SourceAlpha" type="matrix" values="0 0 0 0 0 0 0 0 0 0 0 0 0 0 0 0 0 0 127 0" result="hardAlpha"/>
<feOffset dy="4"/>
<feGaussianBlur stdDeviation="2"/>
<feComposite in2="hardAlpha" operator="out"/>
<feColorMatrix type="matrix" values="0 0 0 0 0 0 0 0 0 0 0 0 0 0 0 0 0 0 0.25 0"/>
<feBlend mode="normal" in2="BackgroundImageFix" result="effect1_dropShadow_19_258"/>
<feBlend mode="normal" in="SourceGraphic" in2="effect1_dropShadow_19_258" result="shape"/>
</filter>
</defs>
</svg>
